<mxfile host="app.diagrams.net" agent="Mozilla/5.0 (Windows NT 10.0; Win64; x64; rv:128.0) Gecko/20100101 Firefox/128.0" version="28.0.7">
  <diagram name="Page-1" id="ByhGdrDt2DM0ONfzT9Cf">
    <mxGraphModel dx="2614" dy="1602" grid="1" gridSize="10" guides="1" tooltips="1" connect="1" arrows="1" fold="1" page="1" pageScale="1" pageWidth="850" pageHeight="1100" math="0" shadow="0">
      <root>
        <mxCell id="0" />
        <mxCell id="1" parent="0" />
        <mxCell id="3A7KvF8rSeJm4cNPrQmB-39" value="Artist" style="swimlane;fontStyle=0;childLayout=stackLayout;horizontal=1;startSize=26;fillColor=none;horizontalStack=0;resizeParent=1;resizeParentMax=0;resizeLast=0;collapsible=1;marginBottom=0;whiteSpace=wrap;html=1;fontSize=13;" parent="1" vertex="1">
          <mxGeometry x="-560" y="400" width="200" height="52" as="geometry" />
        </mxCell>
        <mxCell id="3A7KvF8rSeJm4cNPrQmB-40" value="&lt;font&gt;+ name: xsd:string&lt;/font&gt;" style="text;strokeColor=none;fillColor=none;align=left;verticalAlign=top;spacingLeft=4;spacingRight=4;overflow=hidden;rotatable=0;points=[[0,0.5],[1,0.5]];portConstraint=eastwest;whiteSpace=wrap;html=1;fontSize=13;" parent="3A7KvF8rSeJm4cNPrQmB-39" vertex="1">
          <mxGeometry y="26" width="200" height="26" as="geometry" />
        </mxCell>
        <mxCell id="3A7KvF8rSeJm4cNPrQmB-44" value="&lt;font&gt;Band&lt;/font&gt;" style="swimlane;fontStyle=0;childLayout=stackLayout;horizontal=1;startSize=26;fillColor=none;horizontalStack=0;resizeParent=1;resizeParentMax=0;resizeLast=0;collapsible=1;marginBottom=0;whiteSpace=wrap;html=1;fontSize=13;" parent="1" vertex="1">
          <mxGeometry x="-770" y="560" width="250" height="52" as="geometry" />
        </mxCell>
        <mxCell id="3A7KvF8rSeJm4cNPrQmB-45" value="&lt;font&gt;+ hasMember: owl:ObjectProperty&lt;/font&gt;" style="text;strokeColor=none;fillColor=none;align=left;verticalAlign=top;spacingLeft=4;spacingRight=4;overflow=hidden;rotatable=0;points=[[0,0.5],[1,0.5]];portConstraint=eastwest;whiteSpace=wrap;html=1;fontSize=13;" parent="3A7KvF8rSeJm4cNPrQmB-44" vertex="1">
          <mxGeometry y="26" width="250" height="26" as="geometry" />
        </mxCell>
        <mxCell id="3A7KvF8rSeJm4cNPrQmB-48" value="&lt;font&gt;SoloArtist&lt;/font&gt;" style="swimlane;fontStyle=0;childLayout=stackLayout;horizontal=1;startSize=26;fillColor=none;horizontalStack=0;resizeParent=1;resizeParentMax=0;resizeLast=0;collapsible=1;marginBottom=0;whiteSpace=wrap;html=1;fontSize=13;" parent="1" vertex="1">
          <mxGeometry x="-397" y="560" width="200" height="52" as="geometry" />
        </mxCell>
        <mxCell id="3A7KvF8rSeJm4cNPrQmB-41" value="&lt;font&gt;+ hasProfileLink: rdf:HTML&lt;/font&gt;" style="text;strokeColor=none;fillColor=none;align=left;verticalAlign=top;spacingLeft=4;spacingRight=4;overflow=hidden;rotatable=0;points=[[0,0.5],[1,0.5]];portConstraint=eastwest;whiteSpace=wrap;html=1;fontSize=13;" parent="3A7KvF8rSeJm4cNPrQmB-48" vertex="1">
          <mxGeometry y="26" width="200" height="26" as="geometry" />
        </mxCell>
        <mxCell id="3A7KvF8rSeJm4cNPrQmB-52" value="&lt;font&gt;Album&lt;/font&gt;" style="swimlane;fontStyle=0;childLayout=stackLayout;horizontal=1;startSize=26;fillColor=none;horizontalStack=0;resizeParent=1;resizeParentMax=0;resizeLast=0;collapsible=1;marginBottom=0;whiteSpace=wrap;html=1;fontSize=13;" parent="1" vertex="1">
          <mxGeometry x="-770" y="720" width="253" height="182" as="geometry" />
        </mxCell>
        <mxCell id="3A7KvF8rSeJm4cNPrQmB-53" value="&lt;font&gt;+ name: xsd:string&lt;/font&gt;" style="text;strokeColor=none;fillColor=none;align=left;verticalAlign=top;spacingLeft=4;spacingRight=4;overflow=hidden;rotatable=0;points=[[0,0.5],[1,0.5]];portConstraint=eastwest;whiteSpace=wrap;html=1;fontSize=13;" parent="3A7KvF8rSeJm4cNPrQmB-52" vertex="1">
          <mxGeometry y="26" width="253" height="26" as="geometry" />
        </mxCell>
        <mxCell id="3A7KvF8rSeJm4cNPrQmB-54" value="&lt;font&gt;+ hasArtist: owl:ObjectProperty&lt;/font&gt;" style="text;strokeColor=none;fillColor=none;align=left;verticalAlign=top;spacingLeft=4;spacingRight=4;overflow=hidden;rotatable=0;points=[[0,0.5],[1,0.5]];portConstraint=eastwest;whiteSpace=wrap;html=1;fontSize=13;" parent="3A7KvF8rSeJm4cNPrQmB-52" vertex="1">
          <mxGeometry y="52" width="253" height="26" as="geometry" />
        </mxCell>
        <mxCell id="3A7KvF8rSeJm4cNPrQmB-55" value="&lt;font&gt;+ hasArtistMembers: owl:ObjectProperty&lt;/font&gt;" style="text;strokeColor=none;fillColor=none;align=left;verticalAlign=top;spacingLeft=4;spacingRight=4;overflow=hidden;rotatable=0;points=[[0,0.5],[1,0.5]];portConstraint=eastwest;whiteSpace=wrap;html=1;fontSize=13;" parent="3A7KvF8rSeJm4cNPrQmB-52" vertex="1">
          <mxGeometry y="78" width="253" height="26" as="geometry" />
        </mxCell>
        <mxCell id="3A7KvF8rSeJm4cNPrQmB-56" value="&lt;font&gt;+ hasPurchaseLink: xsd:anyURI&lt;/font&gt;" style="text;strokeColor=none;fillColor=none;align=left;verticalAlign=top;spacingLeft=4;spacingRight=4;overflow=hidden;rotatable=0;points=[[0,0.5],[1,0.5]];portConstraint=eastwest;whiteSpace=wrap;html=1;fontSize=13;" parent="3A7KvF8rSeJm4cNPrQmB-52" vertex="1">
          <mxGeometry y="104" width="253" height="26" as="geometry" />
        </mxCell>
        <mxCell id="3A7KvF8rSeJm4cNPrQmB-57" value="&lt;font&gt;+ hasTracks: owl:ObjectProperty&lt;/font&gt;" style="text;strokeColor=none;fillColor=none;align=left;verticalAlign=top;spacingLeft=4;spacingRight=4;overflow=hidden;rotatable=0;points=[[0,0.5],[1,0.5]];portConstraint=eastwest;whiteSpace=wrap;html=1;fontSize=13;" parent="3A7KvF8rSeJm4cNPrQmB-52" vertex="1">
          <mxGeometry y="130" width="253" height="26" as="geometry" />
        </mxCell>
        <mxCell id="3A7KvF8rSeJm4cNPrQmB-58" value="&lt;font&gt;+ created: xsd:date&lt;/font&gt;" style="text;strokeColor=none;fillColor=none;align=left;verticalAlign=top;spacingLeft=4;spacingRight=4;overflow=hidden;rotatable=0;points=[[0,0.5],[1,0.5]];portConstraint=eastwest;whiteSpace=wrap;html=1;fontSize=13;" parent="3A7KvF8rSeJm4cNPrQmB-52" vertex="1">
          <mxGeometry y="156" width="253" height="26" as="geometry" />
        </mxCell>
        <mxCell id="3A7KvF8rSeJm4cNPrQmB-59" value="&lt;font&gt;Song&lt;/font&gt;" style="swimlane;fontStyle=0;childLayout=stackLayout;horizontal=1;startSize=26;fillColor=none;horizontalStack=0;resizeParent=1;resizeParentMax=0;resizeLast=0;collapsible=1;marginBottom=0;whiteSpace=wrap;html=1;fontSize=13;" parent="1" vertex="1">
          <mxGeometry x="-397" y="720" width="200" height="104" as="geometry" />
        </mxCell>
        <mxCell id="3A7KvF8rSeJm4cNPrQmB-60" value="&lt;font&gt;+ name: xsd:string&lt;/font&gt;" style="text;strokeColor=none;fillColor=none;align=left;verticalAlign=top;spacingLeft=4;spacingRight=4;overflow=hidden;rotatable=0;points=[[0,0.5],[1,0.5]];portConstraint=eastwest;whiteSpace=wrap;html=1;fontSize=13;" parent="3A7KvF8rSeJm4cNPrQmB-59" vertex="1">
          <mxGeometry y="26" width="200" height="26" as="geometry" />
        </mxCell>
        <mxCell id="3A7KvF8rSeJm4cNPrQmB-61" value="&lt;font&gt;+ length: xsd:integer&lt;/font&gt;" style="text;strokeColor=none;fillColor=none;align=left;verticalAlign=top;spacingLeft=4;spacingRight=4;overflow=hidden;rotatable=0;points=[[0,0.5],[1,0.5]];portConstraint=eastwest;whiteSpace=wrap;html=1;fontSize=13;" parent="3A7KvF8rSeJm4cNPrQmB-59" vertex="1">
          <mxGeometry y="52" width="200" height="26" as="geometry" />
        </mxCell>
        <mxCell id="3A7KvF8rSeJm4cNPrQmB-172" value="&lt;font&gt;+ writer:&amp;nbsp;&lt;/font&gt;&lt;span&gt;owl:ObjectProperty&lt;/span&gt;" style="text;strokeColor=none;fillColor=none;align=left;verticalAlign=top;spacingLeft=4;spacingRight=4;overflow=hidden;rotatable=0;points=[[0,0.5],[1,0.5]];portConstraint=eastwest;whiteSpace=wrap;html=1;fontSize=13;" parent="3A7KvF8rSeJm4cNPrQmB-59" vertex="1">
          <mxGeometry y="78" width="200" height="26" as="geometry" />
        </mxCell>
        <mxCell id="3A7KvF8rSeJm4cNPrQmB-63" value="&lt;font&gt;Instrument&lt;/font&gt;" style="swimlane;fontStyle=0;childLayout=stackLayout;horizontal=1;startSize=26;fillColor=none;horizontalStack=0;resizeParent=1;resizeParentMax=0;resizeLast=0;collapsible=1;marginBottom=0;whiteSpace=wrap;html=1;fontSize=13;" parent="1" vertex="1">
          <mxGeometry x="-77" y="560" width="200" height="52" as="geometry" />
        </mxCell>
        <mxCell id="3A7KvF8rSeJm4cNPrQmB-64" value="+ title: xsd:string" style="text;strokeColor=none;fillColor=none;align=left;verticalAlign=top;spacingLeft=4;spacingRight=4;overflow=hidden;rotatable=0;points=[[0,0.5],[1,0.5]];portConstraint=eastwest;whiteSpace=wrap;html=1;fontSize=13;" parent="3A7KvF8rSeJm4cNPrQmB-63" vertex="1">
          <mxGeometry y="26" width="200" height="26" as="geometry" />
        </mxCell>
        <mxCell id="3A7KvF8rSeJm4cNPrQmB-66" value="" style="endArrow=block;endSize=16;endFill=0;html=1;rounded=0;entryX=0.455;entryY=1.077;entryDx=0;entryDy=0;entryPerimeter=0;fontSize=13;" parent="1" target="3A7KvF8rSeJm4cNPrQmB-40" edge="1">
          <mxGeometry width="160" relative="1" as="geometry">
            <mxPoint x="-470" y="520" as="sourcePoint" />
            <mxPoint x="-470" y="478" as="targetPoint" />
            <mxPoint as="offset" />
          </mxGeometry>
        </mxCell>
        <mxCell id="3A7KvF8rSeJm4cNPrQmB-71" value="" style="endArrow=none;html=1;rounded=0;fontSize=13;" parent="1" edge="1">
          <mxGeometry width="50" height="50" relative="1" as="geometry">
            <mxPoint x="-640" y="560" as="sourcePoint" />
            <mxPoint x="-480" y="520" as="targetPoint" />
            <Array as="points">
              <mxPoint x="-640" y="520" />
            </Array>
          </mxGeometry>
        </mxCell>
        <mxCell id="3A7KvF8rSeJm4cNPrQmB-72" value="" style="endArrow=none;html=1;rounded=0;fontSize=13;" parent="1" edge="1">
          <mxGeometry width="50" height="50" relative="1" as="geometry">
            <mxPoint x="-300" y="560" as="sourcePoint" />
            <mxPoint x="-480" y="520" as="targetPoint" />
            <Array as="points">
              <mxPoint x="-300" y="520" />
            </Array>
          </mxGeometry>
        </mxCell>
        <mxCell id="3A7KvF8rSeJm4cNPrQmB-73" value="" style="endArrow=open;endFill=1;endSize=12;html=1;rounded=0;fontSize=13;" parent="1" edge="1">
          <mxGeometry width="160" relative="1" as="geometry">
            <mxPoint x="-197" y="585.5" as="sourcePoint" />
            <mxPoint x="-80" y="586" as="targetPoint" />
          </mxGeometry>
        </mxCell>
        <mxCell id="3A7KvF8rSeJm4cNPrQmB-75" value="" style="endArrow=open;endFill=1;endSize=12;html=1;rounded=0;fontSize=13;" parent="1" edge="1">
          <mxGeometry width="160" relative="1" as="geometry">
            <mxPoint x="-520" y="585.5" as="sourcePoint" />
            <mxPoint x="-400" y="586" as="targetPoint" />
          </mxGeometry>
        </mxCell>
        <mxCell id="3A7KvF8rSeJm4cNPrQmB-76" value="" style="endArrow=open;endFill=1;endSize=12;html=1;rounded=0;exitX=0.5;exitY=0;exitDx=0;exitDy=0;fontSize=13;" parent="1" source="3A7KvF8rSeJm4cNPrQmB-52" edge="1">
          <mxGeometry width="160" relative="1" as="geometry">
            <mxPoint x="-640" y="710" as="sourcePoint" />
            <mxPoint x="-643" y="616" as="targetPoint" />
          </mxGeometry>
        </mxCell>
        <mxCell id="3A7KvF8rSeJm4cNPrQmB-77" value="" style="endArrow=open;endFill=1;endSize=12;html=1;rounded=0;entryX=0;entryY=0.5;entryDx=0;entryDy=0;fontSize=13;" parent="1" target="3A7KvF8rSeJm4cNPrQmB-60" edge="1">
          <mxGeometry width="160" relative="1" as="geometry">
            <mxPoint x="-517" y="760" as="sourcePoint" />
            <mxPoint x="-517" y="660" as="targetPoint" />
          </mxGeometry>
        </mxCell>
        <mxCell id="3A7KvF8rSeJm4cNPrQmB-78" value="&lt;font style=&quot;font-size: 13px;&quot;&gt;:The_Beatles&lt;/font&gt;" style="rounded=1;whiteSpace=wrap;html=1;fillColor=#dae8fc;strokeColor=#6c8ebf;" parent="1" vertex="1">
          <mxGeometry x="-760" y="1480" width="160" height="40" as="geometry" />
        </mxCell>
        <mxCell id="3A7KvF8rSeJm4cNPrQmB-79" value="&lt;font style=&quot;font-size: 13px;&quot;&gt;&quot;The Beatles&quot;&lt;/font&gt;" style="rounded=1;whiteSpace=wrap;html=1;fillColor=#d5e8d4;strokeColor=#82b366;" parent="1" vertex="1">
          <mxGeometry x="-960" y="1480" width="120" height="40" as="geometry" />
        </mxCell>
        <mxCell id="3A7KvF8rSeJm4cNPrQmB-80" value="" style="endArrow=classic;html=1;rounded=0;entryX=1;entryY=0.5;entryDx=0;entryDy=0;" parent="1" target="3A7KvF8rSeJm4cNPrQmB-79" edge="1">
          <mxGeometry width="50" height="50" relative="1" as="geometry">
            <mxPoint x="-760" y="1500" as="sourcePoint" />
            <mxPoint x="-710" y="1450" as="targetPoint" />
          </mxGeometry>
        </mxCell>
        <mxCell id="3A7KvF8rSeJm4cNPrQmB-81" value="&lt;font style=&quot;font-size: 13px;&quot;&gt;:Band&lt;/font&gt;" style="rounded=1;whiteSpace=wrap;html=1;fillColor=#f8cecc;strokeColor=#b85450;" parent="1" vertex="1">
          <mxGeometry x="-880" y="1400" width="80" height="30" as="geometry" />
        </mxCell>
        <mxCell id="3A7KvF8rSeJm4cNPrQmB-82" value="&lt;font style=&quot;font-size: 13px;&quot;&gt;:Album&lt;/font&gt;" style="rounded=1;whiteSpace=wrap;html=1;fillColor=#f8cecc;strokeColor=#b85450;" parent="1" vertex="1">
          <mxGeometry x="-1040" y="1760" width="80" height="30" as="geometry" />
        </mxCell>
        <mxCell id="3A7KvF8rSeJm4cNPrQmB-83" value=":Song" style="rounded=1;whiteSpace=wrap;html=1;fontSize=13;fillColor=#f8cecc;strokeColor=#b85450;" parent="1" vertex="1">
          <mxGeometry x="-280" y="1840" width="80" height="30" as="geometry" />
        </mxCell>
        <mxCell id="3A7KvF8rSeJm4cNPrQmB-84" value="&lt;font style=&quot;font-size: 13px;&quot;&gt;:Instrument&lt;/font&gt;" style="rounded=1;whiteSpace=wrap;html=1;fillColor=#f8cecc;strokeColor=#b85450;" parent="1" vertex="1">
          <mxGeometry x="-120" y="1240" width="80" height="30" as="geometry" />
        </mxCell>
        <mxCell id="3A7KvF8rSeJm4cNPrQmB-85" value="&lt;font style=&quot;font-size: 13px;&quot;&gt;:SoloArtist&lt;/font&gt;" style="rounded=1;whiteSpace=wrap;html=1;fillColor=#f8cecc;strokeColor=#b85450;" parent="1" vertex="1">
          <mxGeometry x="-200" y="1485" width="80" height="30" as="geometry" />
        </mxCell>
        <mxCell id="3A7KvF8rSeJm4cNPrQmB-86" value="" style="endArrow=classic;html=1;rounded=0;entryX=1;entryY=0.5;entryDx=0;entryDy=0;" parent="1" target="3A7KvF8rSeJm4cNPrQmB-81" edge="1">
          <mxGeometry width="50" height="50" relative="1" as="geometry">
            <mxPoint x="-700" y="1480" as="sourcePoint" />
            <mxPoint x="-650" y="1430" as="targetPoint" />
          </mxGeometry>
        </mxCell>
        <mxCell id="3A7KvF8rSeJm4cNPrQmB-87" value="&lt;font style=&quot;font-size: 13px;&quot;&gt;:Rubber_Soul&lt;/font&gt;" style="rounded=1;whiteSpace=wrap;html=1;fillColor=#dae8fc;strokeColor=#6c8ebf;" parent="1" vertex="1">
          <mxGeometry x="-840" y="1720" width="160" height="40" as="geometry" />
        </mxCell>
        <mxCell id="3A7KvF8rSeJm4cNPrQmB-89" value="&lt;font style=&quot;font-size: 13px;&quot;&gt;&quot;Rubber Soul&quot;&lt;/font&gt;" style="rounded=1;whiteSpace=wrap;html=1;fillColor=#d5e8d4;strokeColor=#82b366;" parent="1" vertex="1">
          <mxGeometry x="-1040" y="1840" width="160" height="40" as="geometry" />
        </mxCell>
        <mxCell id="3A7KvF8rSeJm4cNPrQmB-90" value="&lt;font style=&quot;font-size: 13px;&quot;&gt;&quot;1965-12-03&quot;^^xsd:date&lt;/font&gt;" style="rounded=1;whiteSpace=wrap;html=1;fillColor=#d5e8d4;strokeColor=#82b366;" parent="1" vertex="1">
          <mxGeometry x="-890" y="1900" width="160" height="40" as="geometry" />
        </mxCell>
        <mxCell id="3A7KvF8rSeJm4cNPrQmB-91" value="&lt;font style=&quot;font-size: 13px;&quot;&gt;:John_Lennon&lt;/font&gt;" style="rounded=1;whiteSpace=wrap;html=1;fillColor=#dae8fc;strokeColor=#6c8ebf;" parent="1" vertex="1">
          <mxGeometry x="-477" y="1360" width="160" height="40" as="geometry" />
        </mxCell>
        <mxCell id="3A7KvF8rSeJm4cNPrQmB-94" value="&lt;span style=&quot;font-size: 13px;&quot;&gt;:Paul_McCartney&lt;/span&gt;" style="rounded=1;whiteSpace=wrap;html=1;fillColor=#dae8fc;strokeColor=#6c8ebf;" parent="1" vertex="1">
          <mxGeometry x="-480" y="1480" width="160" height="40" as="geometry" />
        </mxCell>
        <mxCell id="3A7KvF8rSeJm4cNPrQmB-99" value="" style="endArrow=classic;html=1;rounded=0;entryX=0;entryY=0;entryDx=0;entryDy=0;exitX=1;exitY=0.75;exitDx=0;exitDy=0;" parent="1" source="3A7KvF8rSeJm4cNPrQmB-91" target="3A7KvF8rSeJm4cNPrQmB-85" edge="1">
          <mxGeometry width="50" height="50" relative="1" as="geometry">
            <mxPoint x="-317" y="1380" as="sourcePoint" />
            <mxPoint x="-267" y="1330" as="targetPoint" />
          </mxGeometry>
        </mxCell>
        <mxCell id="3A7KvF8rSeJm4cNPrQmB-102" value="" style="endArrow=classic;html=1;rounded=0;entryX=0;entryY=0.5;entryDx=0;entryDy=0;exitX=1;exitY=0.5;exitDx=0;exitDy=0;" parent="1" source="3A7KvF8rSeJm4cNPrQmB-94" target="3A7KvF8rSeJm4cNPrQmB-85" edge="1">
          <mxGeometry width="50" height="50" relative="1" as="geometry">
            <mxPoint x="-317" y="1620" as="sourcePoint" />
            <mxPoint x="-267" y="1570" as="targetPoint" />
          </mxGeometry>
        </mxCell>
        <mxCell id="3A7KvF8rSeJm4cNPrQmB-103" value="" style="endArrow=classic;html=1;rounded=0;entryX=1;entryY=0.5;entryDx=0;entryDy=0;exitX=0;exitY=0.5;exitDx=0;exitDy=0;" parent="1" source="3A7KvF8rSeJm4cNPrQmB-87" target="3A7KvF8rSeJm4cNPrQmB-82" edge="1">
          <mxGeometry width="50" height="50" relative="1" as="geometry">
            <mxPoint x="-660" y="1760" as="sourcePoint" />
            <mxPoint x="-610" y="1710" as="targetPoint" />
          </mxGeometry>
        </mxCell>
        <mxCell id="3A7KvF8rSeJm4cNPrQmB-104" value="" style="endArrow=classic;html=1;rounded=0;entryX=0.75;entryY=0;entryDx=0;entryDy=0;exitX=0.25;exitY=1;exitDx=0;exitDy=0;" parent="1" source="3A7KvF8rSeJm4cNPrQmB-87" target="3A7KvF8rSeJm4cNPrQmB-89" edge="1">
          <mxGeometry width="50" height="50" relative="1" as="geometry">
            <mxPoint x="-680" y="1780" as="sourcePoint" />
            <mxPoint x="-630" y="1730" as="targetPoint" />
          </mxGeometry>
        </mxCell>
        <mxCell id="3A7KvF8rSeJm4cNPrQmB-105" value="" style="endArrow=classic;html=1;rounded=0;exitX=0.5;exitY=1;exitDx=0;exitDy=0;entryX=0.5;entryY=0;entryDx=0;entryDy=0;" parent="1" source="3A7KvF8rSeJm4cNPrQmB-87" target="3A7KvF8rSeJm4cNPrQmB-90" edge="1">
          <mxGeometry width="50" height="50" relative="1" as="geometry">
            <mxPoint x="-750" y="1885" as="sourcePoint" />
            <mxPoint x="-637" y="1930" as="targetPoint" />
          </mxGeometry>
        </mxCell>
        <mxCell id="3A7KvF8rSeJm4cNPrQmB-106" value=":Drive_My_Car" style="rounded=1;whiteSpace=wrap;html=1;fontSize=13;fillColor=#dae8fc;strokeColor=#6c8ebf;" parent="1" vertex="1">
          <mxGeometry x="-480" y="1720" width="160" height="40" as="geometry" />
        </mxCell>
        <mxCell id="3A7KvF8rSeJm4cNPrQmB-107" value="&quot;The Beatles&quot;" style="rounded=1;whiteSpace=wrap;html=1;fontSize=13;fillColor=#d5e8d4;strokeColor=#82b366;" parent="1" vertex="1">
          <mxGeometry x="-480" y="1880" width="160" height="40" as="geometry" />
        </mxCell>
        <mxCell id="3A7KvF8rSeJm4cNPrQmB-108" value="&lt;font style=&quot;font-size: 13px;&quot;&gt;147&lt;/font&gt;" style="rounded=1;whiteSpace=wrap;html=1;fillColor=#d5e8d4;strokeColor=#82b366;" parent="1" vertex="1">
          <mxGeometry x="-240" y="1760" width="160" height="40" as="geometry" />
        </mxCell>
        <mxCell id="3A7KvF8rSeJm4cNPrQmB-109" value="" style="endArrow=classic;html=1;rounded=0;entryX=0;entryY=0.5;entryDx=0;entryDy=0;exitX=0.75;exitY=1;exitDx=0;exitDy=0;" parent="1" source="3A7KvF8rSeJm4cNPrQmB-106" target="3A7KvF8rSeJm4cNPrQmB-83" edge="1">
          <mxGeometry width="50" height="50" relative="1" as="geometry">
            <mxPoint x="-160" y="1760" as="sourcePoint" />
            <mxPoint x="-110" y="1710" as="targetPoint" />
          </mxGeometry>
        </mxCell>
        <mxCell id="3A7KvF8rSeJm4cNPrQmB-110" value="" style="endArrow=classic;html=1;rounded=0;exitX=0.75;exitY=1;exitDx=0;exitDy=0;entryX=0.5;entryY=0;entryDx=0;entryDy=0;" parent="1" edge="1">
          <mxGeometry width="50" height="50" relative="1" as="geometry">
            <mxPoint x="-400.5" y="1760" as="sourcePoint" />
            <mxPoint x="-400.5" y="1880" as="targetPoint" />
          </mxGeometry>
        </mxCell>
        <mxCell id="3A7KvF8rSeJm4cNPrQmB-111" value="" style="endArrow=classic;html=1;rounded=0;entryX=0;entryY=0.5;entryDx=0;entryDy=0;exitX=1;exitY=0.5;exitDx=0;exitDy=0;" parent="1" source="3A7KvF8rSeJm4cNPrQmB-106" target="3A7KvF8rSeJm4cNPrQmB-108" edge="1">
          <mxGeometry width="50" height="50" relative="1" as="geometry">
            <mxPoint x="-160" y="1800" as="sourcePoint" />
            <mxPoint x="-110" y="1750" as="targetPoint" />
          </mxGeometry>
        </mxCell>
        <mxCell id="3A7KvF8rSeJm4cNPrQmB-112" value="" style="endArrow=classic;html=1;rounded=0;entryX=0;entryY=0.5;entryDx=0;entryDy=0;exitX=1;exitY=0.5;exitDx=0;exitDy=0;" parent="1" source="3A7KvF8rSeJm4cNPrQmB-87" target="3A7KvF8rSeJm4cNPrQmB-106" edge="1">
          <mxGeometry width="50" height="50" relative="1" as="geometry">
            <mxPoint x="-520" y="1780" as="sourcePoint" />
            <mxPoint x="-470" y="1730" as="targetPoint" />
          </mxGeometry>
        </mxCell>
        <mxCell id="3A7KvF8rSeJm4cNPrQmB-113" value="&lt;font style=&quot;font-size: 13px;&quot;&gt;:Piano&lt;/font&gt;" style="rounded=1;whiteSpace=wrap;html=1;fillColor=#dae8fc;strokeColor=#6c8ebf;" parent="1" vertex="1">
          <mxGeometry x="-160" y="1360" width="160" height="40" as="geometry" />
        </mxCell>
        <mxCell id="3A7KvF8rSeJm4cNPrQmB-114" value="&lt;font style=&quot;font-size: 13px;&quot;&gt;&quot;Piano&quot;&lt;/font&gt;" style="rounded=1;whiteSpace=wrap;html=1;fillColor=#d5e8d4;strokeColor=#82b366;" parent="1" vertex="1">
          <mxGeometry x="-80" y="1480" width="160" height="40" as="geometry" />
        </mxCell>
        <mxCell id="3A7KvF8rSeJm4cNPrQmB-115" value="" style="endArrow=classic;html=1;rounded=0;exitX=1;exitY=0.5;exitDx=0;exitDy=0;" parent="1" source="3A7KvF8rSeJm4cNPrQmB-91" edge="1">
          <mxGeometry width="50" height="50" relative="1" as="geometry">
            <mxPoint x="-317" y="1380" as="sourcePoint" />
            <mxPoint x="-160" y="1380" as="targetPoint" />
          </mxGeometry>
        </mxCell>
        <mxCell id="3A7KvF8rSeJm4cNPrQmB-116" value="" style="endArrow=classic;html=1;rounded=0;entryX=0.5;entryY=1;entryDx=0;entryDy=0;exitX=0.5;exitY=0;exitDx=0;exitDy=0;" parent="1" source="3A7KvF8rSeJm4cNPrQmB-113" target="3A7KvF8rSeJm4cNPrQmB-84" edge="1">
          <mxGeometry width="50" height="50" relative="1" as="geometry">
            <mxPoint x="40" y="1365" as="sourcePoint" />
            <mxPoint x="160" y="1310" as="targetPoint" />
          </mxGeometry>
        </mxCell>
        <mxCell id="3A7KvF8rSeJm4cNPrQmB-117" value="" style="endArrow=classic;html=1;rounded=0;entryX=0.5;entryY=0;entryDx=0;entryDy=0;" parent="1" target="3A7KvF8rSeJm4cNPrQmB-114" edge="1">
          <mxGeometry width="50" height="50" relative="1" as="geometry">
            <mxPoint x="-80" y="1400" as="sourcePoint" />
            <mxPoint y="1461" as="targetPoint" />
            <Array as="points" />
          </mxGeometry>
        </mxCell>
        <mxCell id="3A7KvF8rSeJm4cNPrQmB-118" value="&lt;b&gt;rdf:type&lt;/b&gt;" style="text;html=1;align=center;verticalAlign=middle;whiteSpace=wrap;rounded=0;fontSize=13;rotation=-90;" parent="1" vertex="1">
          <mxGeometry x="-130" y="1300" width="60" height="30" as="geometry" />
        </mxCell>
        <mxCell id="3A7KvF8rSeJm4cNPrQmB-119" value="&lt;b&gt;rdf:type&lt;/b&gt;" style="text;html=1;align=center;verticalAlign=middle;whiteSpace=wrap;rounded=0;fontSize=13;rotation=30;" parent="1" vertex="1">
          <mxGeometry x="-770.00149246279" y="1420.0031646577709" width="60" height="30" as="geometry" />
        </mxCell>
        <mxCell id="3A7KvF8rSeJm4cNPrQmB-125" value="&lt;b&gt;rdf:type&lt;/b&gt;" style="text;html=1;align=center;verticalAlign=middle;whiteSpace=wrap;rounded=0;fontSize=13;rotation=45;" parent="1" vertex="1">
          <mxGeometry x="-329.99923788646686" y="1790.0003810567666" width="60" height="30" as="geometry" />
        </mxCell>
        <mxCell id="3A7KvF8rSeJm4cNPrQmB-127" value="&lt;b&gt;rdf:type&lt;/b&gt;" style="text;html=1;align=center;verticalAlign=middle;whiteSpace=wrap;rounded=0;fontSize=13;rotation=38;" parent="1" vertex="1">
          <mxGeometry x="-270.00149246279" y="1420.0031646577709" width="60" height="30" as="geometry" />
        </mxCell>
        <mxCell id="3A7KvF8rSeJm4cNPrQmB-130" value="&lt;b&gt;rdf:type&lt;/b&gt;" style="text;html=1;align=center;verticalAlign=middle;whiteSpace=wrap;rounded=0;fontSize=13;rotation=0;" parent="1" vertex="1">
          <mxGeometry x="-289.99993953479014" y="1470.0034587474117" width="60" height="30" as="geometry" />
        </mxCell>
        <mxCell id="3A7KvF8rSeJm4cNPrQmB-134" value="&lt;font&gt;:name&lt;/font&gt;" style="text;html=1;align=center;verticalAlign=middle;whiteSpace=wrap;rounded=0;fontSize=13;" parent="1" vertex="1">
          <mxGeometry x="-830" y="1470" width="60" height="30" as="geometry" />
        </mxCell>
        <mxCell id="3A7KvF8rSeJm4cNPrQmB-135" value="&lt;font style=&quot;font-size: 13px;&quot;&gt;:name&lt;/font&gt;" style="text;html=1;align=center;verticalAlign=middle;whiteSpace=wrap;rounded=0;rotation=331;" parent="1" vertex="1">
          <mxGeometry x="-910" y="1780" width="60" height="30" as="geometry" />
        </mxCell>
        <mxCell id="3A7KvF8rSeJm4cNPrQmB-136" value="&lt;font style=&quot;font-size: 13px;&quot;&gt;:created&lt;/font&gt;" style="text;html=1;align=center;verticalAlign=middle;whiteSpace=wrap;rounded=0;rotation=291;" parent="1" vertex="1">
          <mxGeometry x="-830" y="1820" width="60" height="30" as="geometry" />
        </mxCell>
        <mxCell id="3A7KvF8rSeJm4cNPrQmB-137" value="&lt;span class=&quot;relative -mx-px my-[-0.2rem] rounded px-px py-[0.2rem] transition-colors duration-100 ease-in-out&quot;&gt;&lt;a target=&quot;_new&quot; rel=&quot;noopener noreferrer&quot; data-is-only-node=&quot;&quot; data-is-last-node=&quot;&quot; data-end=&quot;27&quot; data-start=&quot;0&quot; href=&quot;https://www.johnlennon.com/&quot;&gt;&lt;font style=&quot;font-size: 13px;&quot;&gt;https://www.johnlennon.com/&lt;/font&gt;&lt;/a&gt;&lt;/span&gt;" style="rounded=1;whiteSpace=wrap;html=1;fillColor=#d5e8d4;strokeColor=#82b366;" parent="1" vertex="1">
          <mxGeometry x="-477" y="1200" width="200" height="40" as="geometry" />
        </mxCell>
        <mxCell id="3A7KvF8rSeJm4cNPrQmB-138" value="" style="endArrow=classic;html=1;rounded=0;entryX=0.5;entryY=1;entryDx=0;entryDy=0;exitX=0.5;exitY=0;exitDx=0;exitDy=0;" parent="1" source="3A7KvF8rSeJm4cNPrQmB-91" target="3A7KvF8rSeJm4cNPrQmB-137" edge="1">
          <mxGeometry width="50" height="50" relative="1" as="geometry">
            <mxPoint x="-357" y="1360" as="sourcePoint" />
            <mxPoint x="-307" y="1310" as="targetPoint" />
          </mxGeometry>
        </mxCell>
        <mxCell id="3A7KvF8rSeJm4cNPrQmB-139" value=":canPlay" style="text;html=1;align=center;verticalAlign=middle;whiteSpace=wrap;rounded=0;fontSize=13;rotation=0;" parent="1" vertex="1">
          <mxGeometry x="-260" y="1350" width="60" height="30" as="geometry" />
        </mxCell>
        <mxCell id="3A7KvF8rSeJm4cNPrQmB-140" value=":hasProfileLink" style="text;html=1;align=center;verticalAlign=middle;whiteSpace=wrap;rounded=0;fontSize=13;rotation=282;" parent="1" vertex="1">
          <mxGeometry x="-430" y="1290" width="60" height="30" as="geometry" />
        </mxCell>
        <mxCell id="3A7KvF8rSeJm4cNPrQmB-141" value="&lt;font&gt;:title&lt;/font&gt;" style="text;html=1;align=center;verticalAlign=middle;whiteSpace=wrap;rounded=0;fontSize=13;rotation=46;" parent="1" vertex="1">
          <mxGeometry x="-60" y="1420" width="60" height="30" as="geometry" />
        </mxCell>
        <mxCell id="3A7KvF8rSeJm4cNPrQmB-142" value="&lt;font style=&quot;font-size: 13px;&quot;&gt;:name&lt;/font&gt;" style="text;html=1;align=center;verticalAlign=middle;whiteSpace=wrap;rounded=0;rotation=90;" parent="1" vertex="1">
          <mxGeometry x="-410" y="1800" width="60" height="30" as="geometry" />
        </mxCell>
        <mxCell id="3A7KvF8rSeJm4cNPrQmB-143" value="&lt;font style=&quot;font-size: 13px;&quot;&gt;:length&lt;/font&gt;" style="text;html=1;align=center;verticalAlign=middle;whiteSpace=wrap;rounded=0;rotation=30;" parent="1" vertex="1">
          <mxGeometry x="-310" y="1730" width="60" height="30" as="geometry" />
        </mxCell>
        <mxCell id="3A7KvF8rSeJm4cNPrQmB-145" value="&lt;font style=&quot;font-size: 13px;&quot;&gt;:hasArtist&lt;/font&gt;" style="text;html=1;align=center;verticalAlign=middle;whiteSpace=wrap;rounded=0;rotation=-70;" parent="1" vertex="1">
          <mxGeometry x="-767" y="1620" width="60" height="30" as="geometry" />
        </mxCell>
        <mxCell id="3A7KvF8rSeJm4cNPrQmB-146" value="&lt;font&gt;:hasMember&lt;/font&gt;" style="text;html=1;align=center;verticalAlign=middle;whiteSpace=wrap;rounded=0;rotation=-30;fontSize=13;" parent="1" vertex="1">
          <mxGeometry x="-610" y="1410" width="60" height="30" as="geometry" />
        </mxCell>
        <mxCell id="3A7KvF8rSeJm4cNPrQmB-149" value="&lt;font&gt;:hasMember&lt;/font&gt;" style="text;html=1;align=center;verticalAlign=middle;whiteSpace=wrap;rounded=0;rotation=0;fontSize=13;" parent="1" vertex="1">
          <mxGeometry x="-570.9999395347902" y="1473.0034587474117" width="60" height="30" as="geometry" />
        </mxCell>
        <mxCell id="3A7KvF8rSeJm4cNPrQmB-150" value="&lt;font style=&quot;font-size: 13px;&quot;&gt;:hasTracks&lt;/font&gt;" style="text;html=1;align=center;verticalAlign=middle;whiteSpace=wrap;rounded=0;rotation=0;" parent="1" vertex="1">
          <mxGeometry x="-618" y="1710" width="60" height="30" as="geometry" />
        </mxCell>
        <mxCell id="3A7KvF8rSeJm4cNPrQmB-151" value="&lt;a href=&quot;https://www.amazon.sg/dp/B0041KVZ0Y&quot;&gt;&lt;font style=&quot;font-size: 13px;&quot;&gt;Rubber Soul: Amazon.sg: Music&lt;/font&gt;&lt;/a&gt;" style="rounded=1;whiteSpace=wrap;html=1;fillColor=#d5e8d4;strokeColor=#82b366;" parent="1" vertex="1">
          <mxGeometry x="-700" y="1880" width="160" height="40" as="geometry" />
        </mxCell>
        <mxCell id="3A7KvF8rSeJm4cNPrQmB-152" value="" style="endArrow=classic;html=1;rounded=0;exitX=0.75;exitY=1;exitDx=0;exitDy=0;entryX=0.5;entryY=0;entryDx=0;entryDy=0;" parent="1" source="3A7KvF8rSeJm4cNPrQmB-87" target="3A7KvF8rSeJm4cNPrQmB-151" edge="1">
          <mxGeometry width="50" height="50" relative="1" as="geometry">
            <mxPoint x="-595" y="1910" as="sourcePoint" />
            <mxPoint x="-545" y="1860" as="targetPoint" />
          </mxGeometry>
        </mxCell>
        <mxCell id="3A7KvF8rSeJm4cNPrQmB-156" value="&lt;font style=&quot;font-size: 13px;&quot;&gt;&lt;b&gt;rdf:type&lt;/b&gt;&lt;/font&gt;" style="text;html=1;align=center;verticalAlign=middle;whiteSpace=wrap;rounded=0;rotation=-20;" parent="1" vertex="1">
          <mxGeometry x="-940" y="1730" width="60" height="30" as="geometry" />
        </mxCell>
        <mxCell id="3A7KvF8rSeJm4cNPrQmB-158" value="&lt;font style=&quot;font-size: 13px;&quot;&gt;&lt;b&gt;&amp;lt;&amp;lt;virtualProperty&amp;gt;&amp;gt;&lt;/b&gt;&lt;/font&gt;" style="text;html=1;align=center;verticalAlign=middle;whiteSpace=wrap;rounded=0;rotation=0;fontColor=light-dark(#000000, #ededed);" parent="1" vertex="1">
          <mxGeometry x="-810" y="1280" width="60" height="30" as="geometry" />
        </mxCell>
        <mxCell id="3A7KvF8rSeJm4cNPrQmB-159" value="&lt;b&gt;:hasArtistMembers&lt;/b&gt;" style="text;html=1;align=center;verticalAlign=middle;whiteSpace=wrap;rounded=0;fontSize=13;rotation=0;" parent="1" vertex="1">
          <mxGeometry x="-810" y="1250" width="60" height="30" as="geometry" />
        </mxCell>
        <mxCell id="3A7KvF8rSeJm4cNPrQmB-160" value="&lt;font style=&quot;font-size: 13px;&quot;&gt;:hasPurchaseLink&lt;/font&gt;" style="text;html=1;align=center;verticalAlign=middle;whiteSpace=wrap;rounded=0;rotation=50;" parent="1" vertex="1">
          <mxGeometry x="-690" y="1800" width="60" height="30" as="geometry" />
        </mxCell>
        <mxCell id="3A7KvF8rSeJm4cNPrQmB-163" value="&lt;font&gt;has tracks&lt;/font&gt;" style="text;html=1;align=center;verticalAlign=middle;whiteSpace=wrap;rounded=0;fontSize=13;" parent="1" vertex="1">
          <mxGeometry x="-500" y="730" width="80" height="30" as="geometry" />
        </mxCell>
        <mxCell id="3A7KvF8rSeJm4cNPrQmB-164" value="&lt;font&gt;has artist&lt;/font&gt;" style="text;html=1;align=center;verticalAlign=middle;whiteSpace=wrap;rounded=0;rotation=-90;fontSize=13;" parent="1" vertex="1">
          <mxGeometry x="-690" y="660" width="80" height="30" as="geometry" />
        </mxCell>
        <mxCell id="3A7KvF8rSeJm4cNPrQmB-165" value="&lt;font&gt;has members&lt;/font&gt;" style="text;html=1;align=center;verticalAlign=middle;whiteSpace=wrap;rounded=0;fontSize=13;" parent="1" vertex="1">
          <mxGeometry x="-505" y="554" width="85" height="30" as="geometry" />
        </mxCell>
        <mxCell id="3A7KvF8rSeJm4cNPrQmB-166" value="&lt;font&gt;can play&lt;/font&gt;" style="text;html=1;align=center;verticalAlign=middle;whiteSpace=wrap;rounded=0;fontSize=13;" parent="1" vertex="1">
          <mxGeometry x="-183" y="556" width="85" height="30" as="geometry" />
        </mxCell>
        <mxCell id="3A7KvF8rSeJm4cNPrQmB-169" value="&lt;font style=&quot;font-size: 13px;&quot;&gt;:writer&lt;/font&gt;" style="text;html=1;align=center;verticalAlign=middle;whiteSpace=wrap;rounded=0;rotation=90;" parent="1" vertex="1">
          <mxGeometry x="-450" y="1620" width="60" height="30" as="geometry" />
        </mxCell>
        <mxCell id="3A7KvF8rSeJm4cNPrQmB-170" value="" style="endArrow=open;endFill=1;endSize=12;html=1;rounded=0;entryX=0.435;entryY=1.192;entryDx=0;entryDy=0;entryPerimeter=0;fontSize=13;" parent="1" edge="1">
          <mxGeometry width="160" relative="1" as="geometry">
            <mxPoint x="-301" y="720" as="sourcePoint" />
            <mxPoint x="-301" y="616.9920000000002" as="targetPoint" />
          </mxGeometry>
        </mxCell>
        <mxCell id="3A7KvF8rSeJm4cNPrQmB-171" value="&lt;span&gt;writer&lt;/span&gt;" style="text;html=1;align=center;verticalAlign=middle;whiteSpace=wrap;rounded=0;rotation=-90;fontSize=13;" parent="1" vertex="1">
          <mxGeometry x="-360" y="660" width="80" height="30" as="geometry" />
        </mxCell>
        <mxCell id="4Dy1q6GXWefjnNSAtW9p-13" value="&lt;b&gt;:hasMembersArtist&lt;/b&gt;" style="text;html=1;align=center;verticalAlign=middle;whiteSpace=wrap;rounded=0;fontSize=13;rotation=-30;" parent="1" vertex="1">
          <mxGeometry x="-599.9994987724438" y="1574.9983607764607" width="60" height="30" as="geometry" />
        </mxCell>
        <mxCell id="4Dy1q6GXWefjnNSAtW9p-14" value="&lt;font style=&quot;font-size: 13px;&quot;&gt;&lt;b&gt;&amp;lt;&amp;lt;virtualProperty&amp;gt;&amp;gt;&lt;/b&gt;&lt;/font&gt;" style="text;html=1;align=center;verticalAlign=middle;whiteSpace=wrap;rounded=0;rotation=330;fontColor=light-dark(#000000, #ededed);" parent="1" vertex="1">
          <mxGeometry x="-576.9994987724438" y="1604.9983607764607" width="60" height="30" as="geometry" />
        </mxCell>
        <mxCell id="4Dy1q6GXWefjnNSAtW9p-18" value="&lt;font style=&quot;font-size: 13px;&quot;&gt;&lt;b&gt;&amp;lt;&amp;lt;virtualProperty&amp;gt;&amp;gt;&lt;/b&gt;&lt;/font&gt;" style="text;html=1;align=center;verticalAlign=middle;whiteSpace=wrap;rounded=0;rotation=-80;fontColor=light-dark(#000000, #ededed);" parent="1" vertex="1">
          <mxGeometry x="-397.0037093513005" y="1617.4939833452709" width="60" height="30" as="geometry" />
        </mxCell>
        <mxCell id="4Dy1q6GXWefjnNSAtW9p-19" value="&lt;b&gt;:isAuthorOf&lt;/b&gt;" style="text;html=1;align=center;verticalAlign=middle;whiteSpace=wrap;rounded=0;fontSize=13;rotation=-85;" parent="1" vertex="1">
          <mxGeometry x="-349.99949877244376" y="1619.9983607764607" width="60" height="30" as="geometry" />
        </mxCell>
        <mxCell id="4Dy1q6GXWefjnNSAtW9p-20" value="" style="endArrow=classic;html=1;rounded=0;entryX=0.5;entryY=1;entryDx=0;entryDy=0;exitX=0.5;exitY=0;exitDx=0;exitDy=0;" parent="1" source="3A7KvF8rSeJm4cNPrQmB-106" target="3A7KvF8rSeJm4cNPrQmB-94" edge="1">
          <mxGeometry width="50" height="50" relative="1" as="geometry">
            <mxPoint x="-240" y="1760" as="sourcePoint" />
            <mxPoint x="-190" y="1710" as="targetPoint" />
          </mxGeometry>
        </mxCell>
        <mxCell id="4Dy1q6GXWefjnNSAtW9p-25" value="" style="endArrow=classic;html=1;rounded=0;entryX=0;entryY=0.5;entryDx=0;entryDy=0;" parent="1" target="3A7KvF8rSeJm4cNPrQmB-94" edge="1">
          <mxGeometry width="50" height="50" relative="1" as="geometry">
            <mxPoint x="-600" y="1500" as="sourcePoint" />
            <mxPoint x="-550" y="1450" as="targetPoint" />
          </mxGeometry>
        </mxCell>
        <mxCell id="4Dy1q6GXWefjnNSAtW9p-27" value="" style="curved=1;endArrow=classic;html=1;rounded=0;exitX=0.25;exitY=1;exitDx=0;exitDy=0;entryX=0.75;entryY=0;entryDx=0;entryDy=0;dashed=1;strokeWidth=2;fillColor=#f8cecc;strokeColor=#b85450;" parent="1" source="3A7KvF8rSeJm4cNPrQmB-94" target="3A7KvF8rSeJm4cNPrQmB-87" edge="1">
          <mxGeometry width="50" height="50" relative="1" as="geometry">
            <mxPoint x="-630" y="1645" as="sourcePoint" />
            <mxPoint x="-680" y="1710" as="targetPoint" />
            <Array as="points">
              <mxPoint x="-580" y="1645" />
              <mxPoint x="-640" y="1620" />
            </Array>
          </mxGeometry>
        </mxCell>
        <mxCell id="4Dy1q6GXWefjnNSAtW9p-28" value="" style="endArrow=classic;html=1;rounded=0;entryX=0.5;entryY=1;entryDx=0;entryDy=0;strokeWidth=2;fillColor=#fff2cc;strokeColor=light-dark(#000000, #6d5100);" parent="1" target="3A7KvF8rSeJm4cNPrQmB-78" edge="1">
          <mxGeometry width="50" height="50" relative="1" as="geometry">
            <mxPoint x="-750" y="1720" as="sourcePoint" />
            <mxPoint x="-700" y="1670" as="targetPoint" />
          </mxGeometry>
        </mxCell>
        <mxCell id="4Dy1q6GXWefjnNSAtW9p-29" value="" style="endArrow=classic;html=1;rounded=0;entryX=0;entryY=0.5;entryDx=0;entryDy=0;fillColor=#fff2cc;strokeColor=light-dark(#000000, #6d5100);strokeWidth=2;" parent="1" target="3A7KvF8rSeJm4cNPrQmB-91" edge="1">
          <mxGeometry width="50" height="50" relative="1" as="geometry">
            <mxPoint x="-656" y="1480" as="sourcePoint" />
            <mxPoint x="-606" y="1430" as="targetPoint" />
          </mxGeometry>
        </mxCell>
        <mxCell id="4Dy1q6GXWefjnNSAtW9p-30" value="" style="curved=1;endArrow=classic;html=1;rounded=0;exitX=0;exitY=0;exitDx=0;exitDy=0;entryX=0.25;entryY=0;entryDx=0;entryDy=0;dashed=1;strokeWidth=2;fillColor=#fff2cc;strokeColor=#d6b656;" parent="1" source="3A7KvF8rSeJm4cNPrQmB-87" target="3A7KvF8rSeJm4cNPrQmB-91" edge="1">
          <mxGeometry width="50" height="50" relative="1" as="geometry">
            <mxPoint x="-1000" y="1630" as="sourcePoint" />
            <mxPoint x="-950" y="1580" as="targetPoint" />
            <Array as="points">
              <mxPoint x="-990" y="1640" />
              <mxPoint x="-1010" y="1280" />
              <mxPoint x="-500" y="1280" />
            </Array>
          </mxGeometry>
        </mxCell>
        <mxCell id="4Dy1q6GXWefjnNSAtW9p-35" value="" style="curved=1;endArrow=classic;html=1;rounded=0;exitX=0.75;exitY=1;exitDx=0;exitDy=0;entryX=0.838;entryY=-0.025;entryDx=0;entryDy=0;dashed=1;strokeWidth=2;fillColor=#f8cecc;strokeColor=#b85450;entryPerimeter=0;" parent="1" source="3A7KvF8rSeJm4cNPrQmB-94" target="3A7KvF8rSeJm4cNPrQmB-106" edge="1">
          <mxGeometry width="50" height="50" relative="1" as="geometry">
            <mxPoint x="-200" y="1550" as="sourcePoint" />
            <mxPoint x="-480" y="1750" as="targetPoint" />
            <Array as="points">
              <mxPoint x="-330" y="1590" />
              <mxPoint x="-340" y="1675" />
              <mxPoint x="-350" y="1620" />
            </Array>
          </mxGeometry>
        </mxCell>
        <mxCell id="Njki3TV5xo8OHPCWGhRm-1" value="&lt;b&gt;Music&lt;/b&gt;" style="whiteSpace=wrap;html=1;align=center;verticalAlign=middle;treeFolding=1;treeMoving=1;newEdgeStyle={&quot;edgeStyle&quot;:&quot;elbowEdgeStyle&quot;,&quot;startArrow&quot;:&quot;none&quot;,&quot;endArrow&quot;:&quot;none&quot;};rounded=1;fillColor=#dae8fc;strokeColor=#6c8ebf;" vertex="1" parent="1">
          <mxGeometry x="-1320" y="80" width="120" height="40" as="geometry" />
        </mxCell>
        <mxCell id="Njki3TV5xo8OHPCWGhRm-4" value="&lt;b&gt;Regions&lt;/b&gt;" style="whiteSpace=wrap;html=1;align=center;verticalAlign=middle;treeFolding=1;treeMoving=1;newEdgeStyle={&quot;edgeStyle&quot;:&quot;elbowEdgeStyle&quot;,&quot;startArrow&quot;:&quot;none&quot;,&quot;endArrow&quot;:&quot;none&quot;};rounded=1;fillColor=#d5e8d4;strokeColor=#82b366;" vertex="1" parent="1">
          <mxGeometry x="-1200" y="160" width="120" height="40" as="geometry" />
        </mxCell>
        <mxCell id="Njki3TV5xo8OHPCWGhRm-5" value="" style="edgeStyle=elbowEdgeStyle;elbow=vertical;sourcePerimeterSpacing=0;targetPerimeterSpacing=0;startArrow=none;endArrow=none;rounded=0;curved=0;exitX=0.75;exitY=1;exitDx=0;exitDy=0;" edge="1" target="Njki3TV5xo8OHPCWGhRm-4" parent="1" source="Njki3TV5xo8OHPCWGhRm-1">
          <mxGeometry relative="1" as="geometry">
            <mxPoint x="-1180" y="120" as="sourcePoint" />
          </mxGeometry>
        </mxCell>
        <mxCell id="Njki3TV5xo8OHPCWGhRm-6" value="&lt;b&gt;Global Genres&lt;/b&gt;" style="whiteSpace=wrap;html=1;align=center;verticalAlign=middle;treeFolding=1;treeMoving=1;newEdgeStyle={&quot;edgeStyle&quot;:&quot;elbowEdgeStyle&quot;,&quot;startArrow&quot;:&quot;none&quot;,&quot;endArrow&quot;:&quot;none&quot;};rounded=1;fillColor=#d5e8d4;strokeColor=#82b366;" vertex="1" parent="1">
          <mxGeometry x="-1440" y="160" width="120" height="40" as="geometry" />
        </mxCell>
        <mxCell id="Njki3TV5xo8OHPCWGhRm-7" value="" style="edgeStyle=elbowEdgeStyle;elbow=vertical;sourcePerimeterSpacing=0;targetPerimeterSpacing=0;startArrow=none;endArrow=none;rounded=0;curved=0;exitX=0.25;exitY=1;exitDx=0;exitDy=0;" edge="1" target="Njki3TV5xo8OHPCWGhRm-6" parent="1" source="Njki3TV5xo8OHPCWGhRm-1">
          <mxGeometry relative="1" as="geometry">
            <mxPoint x="-1480" y="120" as="sourcePoint" />
          </mxGeometry>
        </mxCell>
        <mxCell id="Njki3TV5xo8OHPCWGhRm-8" value="Thing" style="whiteSpace=wrap;html=1;align=center;verticalAlign=middle;treeFolding=1;treeMoving=1;newEdgeStyle={&quot;edgeStyle&quot;:&quot;elbowEdgeStyle&quot;,&quot;startArrow&quot;:&quot;none&quot;,&quot;endArrow&quot;:&quot;none&quot;};" vertex="1" parent="1">
          <mxGeometry x="-1480" y="-160" width="120" height="40" as="geometry" />
        </mxCell>
        <mxCell id="Njki3TV5xo8OHPCWGhRm-10" value="Thing" style="whiteSpace=wrap;html=1;align=center;verticalAlign=middle;treeFolding=1;treeMoving=1;newEdgeStyle={&quot;edgeStyle&quot;:&quot;elbowEdgeStyle&quot;,&quot;startArrow&quot;:&quot;none&quot;,&quot;endArrow&quot;:&quot;none&quot;};rounded=1;fillColor=#f5f5f5;fontColor=#333333;strokeColor=#666666;fontStyle=1" vertex="1" parent="1">
          <mxGeometry x="-1480" width="120" height="40" as="geometry" />
        </mxCell>
        <mxCell id="Njki3TV5xo8OHPCWGhRm-12" value="" style="edgeStyle=elbowEdgeStyle;elbow=vertical;sourcePerimeterSpacing=0;targetPerimeterSpacing=0;startArrow=none;endArrow=none;rounded=0;curved=0;exitX=0.75;exitY=1;exitDx=0;exitDy=0;" edge="1" parent="1" source="Njki3TV5xo8OHPCWGhRm-10">
          <mxGeometry relative="1" as="geometry">
            <mxPoint x="-1330" y="40" as="sourcePoint" />
            <mxPoint x="-1260" y="80" as="targetPoint" />
          </mxGeometry>
        </mxCell>
        <mxCell id="Njki3TV5xo8OHPCWGhRm-13" value="Movies" style="whiteSpace=wrap;html=1;align=center;verticalAlign=middle;treeFolding=1;treeMoving=1;newEdgeStyle={&quot;edgeStyle&quot;:&quot;elbowEdgeStyle&quot;,&quot;startArrow&quot;:&quot;none&quot;,&quot;endArrow&quot;:&quot;none&quot;};rounded=1;fillColor=#dae8fc;strokeColor=#6c8ebf;fontStyle=1" vertex="1" parent="1">
          <mxGeometry x="-1640" y="80" width="120" height="40" as="geometry" />
        </mxCell>
        <mxCell id="Njki3TV5xo8OHPCWGhRm-14" value="" style="edgeStyle=elbowEdgeStyle;elbow=vertical;sourcePerimeterSpacing=0;targetPerimeterSpacing=0;startArrow=none;endArrow=none;rounded=0;curved=0;exitX=0.25;exitY=1;exitDx=0;exitDy=0;" edge="1" target="Njki3TV5xo8OHPCWGhRm-13" parent="1" source="Njki3TV5xo8OHPCWGhRm-10">
          <mxGeometry relative="1" as="geometry">
            <mxPoint x="-1680" y="40" as="sourcePoint" />
          </mxGeometry>
        </mxCell>
        <mxCell id="Njki3TV5xo8OHPCWGhRm-15" value="&lt;b&gt;Euro&lt;/b&gt;" style="whiteSpace=wrap;html=1;align=center;verticalAlign=middle;treeFolding=1;treeMoving=1;newEdgeStyle={&quot;edgeStyle&quot;:&quot;elbowEdgeStyle&quot;,&quot;startArrow&quot;:&quot;none&quot;,&quot;endArrow&quot;:&quot;none&quot;};rounded=1;fillColor=#ffe6cc;strokeColor=#d79b00;" vertex="1" parent="1">
          <mxGeometry x="-1080" y="240" width="120" height="40" as="geometry" />
        </mxCell>
        <mxCell id="Njki3TV5xo8OHPCWGhRm-16" value="" style="edgeStyle=elbowEdgeStyle;elbow=vertical;sourcePerimeterSpacing=0;targetPerimeterSpacing=0;startArrow=none;endArrow=none;rounded=0;curved=0;exitX=0.75;exitY=1;exitDx=0;exitDy=0;" edge="1" target="Njki3TV5xo8OHPCWGhRm-15" parent="1" source="Njki3TV5xo8OHPCWGhRm-4">
          <mxGeometry relative="1" as="geometry">
            <mxPoint x="-1060" y="200" as="sourcePoint" />
          </mxGeometry>
        </mxCell>
        <mxCell id="Njki3TV5xo8OHPCWGhRm-17" value="&lt;b&gt;Asia&lt;/b&gt;" style="whiteSpace=wrap;html=1;align=center;verticalAlign=middle;treeFolding=1;treeMoving=1;newEdgeStyle={&quot;edgeStyle&quot;:&quot;elbowEdgeStyle&quot;,&quot;startArrow&quot;:&quot;none&quot;,&quot;endArrow&quot;:&quot;none&quot;};fillColor=#ffe6cc;strokeColor=#d79b00;rounded=1;" vertex="1" parent="1">
          <mxGeometry x="-1320" y="240" width="120" height="40" as="geometry" />
        </mxCell>
        <mxCell id="Njki3TV5xo8OHPCWGhRm-18" value="" style="edgeStyle=elbowEdgeStyle;elbow=vertical;sourcePerimeterSpacing=0;targetPerimeterSpacing=0;startArrow=none;endArrow=none;rounded=0;curved=0;exitX=0.25;exitY=1;exitDx=0;exitDy=0;" edge="1" target="Njki3TV5xo8OHPCWGhRm-17" parent="1" source="Njki3TV5xo8OHPCWGhRm-4">
          <mxGeometry relative="1" as="geometry">
            <mxPoint x="-1320" y="200" as="sourcePoint" />
          </mxGeometry>
        </mxCell>
      </root>
    </mxGraphModel>
  </diagram>
</mxfile>
